<svg xmlns="http://www.w3.org/2000/svg" viewBox="0 0 38.1 38.1"><title>Riciclo</title><g id="Layer_2" data-name="Layer 2"><g id="Layer_1-2" data-name="Layer 1"><path d="M19,0A19,19,0,1,1,0,19,19.05,19.05,0,0,1,19,0" fill="#ffde17"/><path d="M19,31a1.19,1.19,0,1,1,0-2.38A9.54,9.54,0,0,0,27.65,15a1.19,1.19,0,0,1,2.15-1A11.92,11.92,0,0,1,19,31" fill="#fff"/><path d="M25.58,17.83l-1.42-7.29a.6.6,0,0,1,.78-.68l7,2.42a.6.6,0,0,1,.2,1l-5.6,4.87a.6.6,0,0,1-1-.34" fill="#fff"/><path d="M9.38,24.94a1.19,1.19,0,0,1-1.07-.68A11.91,11.91,0,0,1,19,7.23a1.19,1.19,0,0,1,0,2.38,9.54,9.54,0,0,0-9.53,9.53,9.38,9.38,0,0,0,.93,4.1,1.2,1.2,0,0,1-.56,1.59,1.22,1.22,0,0,1-.52.11" fill="#fff"/><path d="M12.52,20.36l1.42,7.28a.6.6,0,0,1-.79.68l-7-2.41a.6.6,0,0,1-.2-1L11.54,20a.6.6,0,0,1,1,.34" fill="#fff"/></g></g></svg>