<?xml version="1.0" encoding="utf-8"?>
<!-- Generator: Adobe Illustrator 23.1.1, SVG Export Plug-In . SVG Version: 6.00 Build 0)  -->
<svg version="1.1" id="Layer_1" xmlns="http://www.w3.org/2000/svg" xmlns:xlink="http://www.w3.org/1999/xlink" x="0px" y="0px"
	 viewBox="0 0 36 36" style="enable-background:new 0 0 36 36;" xml:space="preserve">
<style type="text/css">
	.st0{fill:#00A14B;}
	.st1{fill:#FFFFFF;}
</style>
<title>Riparo</title>
<g>
	<g id="Layer_1-2">
		<path class="st0" d="M18,0C8.1,0,0,8.1,0,18s8.1,18,18,18s18-8.1,18-18S27.9,0,18,0z M25.2,21.4l-3.5-3.6l-9.3,9.4
			c-0.6,0.5-1.5,0.5-2,0l-1.8-1.8c-0.5-0.6-0.5-1.5,0-2L18,14l-0.2-0.2l-2.9-2.9l4.6-4.6l6.9,7.1l1.4,5.5L25.2,21.4z"/>
		<path class="st1" d="M27.7,18.9l-2.5,2.5l-3.5-3.6l-9.3,9.4c-0.6,0.5-1.5,0.5-2,0l-1.8-1.8c-0.5-0.6-0.5-1.5,0-2L18,14l-0.2-0.2
			l-2.9-2.9l4.6-4.6l6.9,7.1L27.7,18.9z"/>
	</g>
</g>
</svg>
