<svg xmlns="http://www.w3.org/2000/svg" viewBox="0 0 36 36"><title>Riparo</title><g id="Layer_2" data-name="Layer 2"><g id="Layer_1-2" data-name="Layer 1"><circle cx="18" cy="18" r="18" fill="#00a14b"/><polygon points="19.43 7.54 16.05 10.92 25.32 20.2 26.88 18.64 25.67 13.79 19.43 7.54" fill="#fff"/><path d="M9.19,24.84,11,26.65a.55.55,0,0,0,.76,0l9.41-9.41L18.6,14.67,9.19,24.08A.53.53,0,0,0,9.19,24.84Z" fill="#fff"/><path d="M19.43,6.35l-4.57,4.57L18,14.07l.2-.2a.42.42,0,0,1,.6.6l-.2.2,2.57,2.57.2-.2a.42.42,0,0,1,.6.6l-.2.2,3.55,3.56,2.49-2.49-1.38-5.54ZM25.32,20.2,16,10.92l3.38-3.38,6.24,6.25,1.21,4.85Z" fill="#fff"/><path d="M11.76,26.65a.55.55,0,0,1-.76,0L9.19,24.84a.53.53,0,0,1,0-.76l9.41-9.41-.6-.6L8.59,23.48a1.38,1.38,0,0,0,0,1.95l1.81,1.81a1.38,1.38,0,0,0,1.95,0l9.41-9.41-.6-.6Z" fill="#fff"/><path d="M18.8,14.47a.42.42,0,0,0-.6-.6l-.2.2.6.6Z" fill="#fff"/><path d="M22,17a.42.42,0,0,0-.6,0l-.2.2.6.6.2-.2A.42.42,0,0,0,22,17Z" fill="#fff"/></g></g></svg>