<svg xmlns="http://www.w3.org/2000/svg" viewBox="0 0 38.1 38.1"><title>Riuso</title><g id="Layer_2" data-name="Layer 2"><g id="Layer_1-2" data-name="Layer 1"><path d="M19,0A19.05,19.05,0,1,1,0,19.05,19.05,19.05,0,0,1,19,0" fill="#1b75bc"/><path d="M19,30.92a1.19,1.19,0,1,1,0-2.38A9.49,9.49,0,1,0,11.51,13.3a1.19,1.19,0,1,1-1.89-1.45,12,12,0,0,1,4.09-3.39A11.76,11.76,0,0,1,19,7.19a11.86,11.86,0,1,1,0,23.72" fill="#fff"/><path d="M15,13.81l-5.82,4.6a.6.6,0,0,1-1-.38L7.15,10.68A.6.6,0,0,1,8,10l6.89,2.74a.6.6,0,0,1,.15,1" fill="#fff"/></g></g></svg>