<?xml version="1.0" encoding="utf-8"?>
<!-- Generator: Adobe Illustrator 21.0.0, SVG Export Plug-In . SVG Version: 6.00 Build 0)  -->
<svg version="1.1" xmlns="http://www.w3.org/2000/svg" xmlns:xlink="http://www.w3.org/1999/xlink" x="0px" y="0px"
	 viewBox="0 0 635 635" style="enable-background:new 0 0 635 635;" xml:space="preserve">
<style type="text/css">
	.st0{fill:#FFFFFF;}
	.st1{fill:#0FB4D7;}
	.st2{fill:none;}
	.st3{font-family:'Montserrat-Medium';}
	.st4{font-size:100px;}
</style>
<g id="Riduco">
</g>
<g id="Riciclo">
	<circle class="st0" cx="317.5" cy="317.5" r="317.5"/>
	<g>
		<g>
			<path class="st1" d="M317.5,516c-11,0-19.8-8.9-19.8-19.8s8.9-19.8,19.8-19.8c87.5,0,158.8-71.2,158.8-158.8
				c0-24-5.2-47-15.4-68.4c-4.7-9.9-0.5-21.7,9.3-26.5c9.9-4.7,21.7-0.6,26.5,9.3c12.8,26.8,19.3,55.6,19.3,85.5
				C515.9,427,426.9,516,317.5,516z"/>
		</g>
		<g>
			<g>
				<path class="st1" d="M426.3,297.2l-23.6-121.5c-1.5-7.5,5.8-13.8,13-11.3l117,40.3c7.3,2.5,9.1,11.9,3.3,17l-93.4,81.2
					C436.8,307.9,427.7,304.7,426.3,297.2z"/>
			</g>
		</g>
	</g>
	<g>
		<g>
			<path class="st1" d="M156.3,415.7c-7.4,0-14.5-4.2-17.9-11.3c-12.8-26.8-19.3-55.6-19.3-85.5c0-109.4,89-198.4,198.4-198.4
				c11,0,19.8,8.9,19.8,19.8s-8.9,19.8-19.8,19.8c-87.5,0-158.8,71.2-158.8,158.8c0,24,5.2,47,15.5,68.4c4.7,9.9,0.5,21.7-9.3,26.5
				C162.1,415.1,159.2,415.7,156.3,415.7z"/>
		</g>
		<g>
			<g>
				<path class="st1" d="M208.7,339.3l23.6,121.3c1.5,7.6-5.8,13.9-13.1,11.4l-116.9-40.2c-7.3-2.5-9.1-12-3.3-17l93.3-81.1
					C198.2,328.6,207.3,331.7,208.7,339.3z"/>
			</g>
		</g>
	</g>
</g>
<g id="Riutilizzo">
	<rect x="68.8" y="-112.5" class="st2" width="497.4" height="83.5"/>
	<text transform="matrix(1 0 0 1 149.3537 -38.2598)" class="st0 st3 st4">Riciclo</text>
</g>
</svg>
