<?xml version="1.0" encoding="utf-8"?>
<!-- Generator: Adobe Illustrator 21.0.0, SVG Export Plug-In . SVG Version: 6.00 Build 0)  -->
<svg version="1.1" xmlns="http://www.w3.org/2000/svg" xmlns:xlink="http://www.w3.org/1999/xlink" x="0px" y="0px"
	 viewBox="0 0 635 635" style="enable-background:new 0 0 635 635;" xml:space="preserve">
<style type="text/css">
	.st0{fill:#FFFFFF;}
	.st1{fill:#0FB4D7;}
	.st2{fill:none;}
	.st3{font-family:'Montserrat-Medium';}
	.st4{font-size:100px;}
</style>
<g id="Riduco">
	<circle class="st0" cx="317.5" cy="317.5" r="317.5"/>
	<g>
		<g>
			<path class="st1" d="M217.1,237c-5.1,0-10.2-1.9-14-5.8l-58.4-58.4c-7.8-7.7-7.8-20.3,0-28.1c7.7-7.8,20.3-7.8,28.1,0l58.4,58.4
				c7.8,7.7,7.8,20.3,0,28.1C227.3,235,222.2,237,217.1,237z"/>
		</g>
		<g>
			<g>
				<path class="st1" d="M161.4,261.1l119.7,32.1c7.4,2,14.1-4.8,12.1-12.1l-32.1-119.7c-2-7.4-11.2-9.8-16.6-4.4l-87.6,87.6
					C151.5,250,154,259.2,161.4,261.1z"/>
			</g>
		</g>
	</g>
	<g>
		<g>
			<path class="st1" d="M476.2,496.1c-5.1,0-10.2-1.9-14-5.8l-58.4-58.4c-7.8-7.7-7.8-20.3,0-28.1c7.7-7.8,20.3-7.8,28.1,0
				l58.4,58.4c7.8,7.7,7.8,20.3,0,28.1C486.4,494.2,481.3,496.1,476.2,496.1z"/>
		</g>
		<g>
			<g>
				<path class="st1" d="M473.7,373.9l-119.8-32.1c-7.3-2-14.1,4.8-12.1,12.1l32.1,119.8c2,7.4,11.2,9.8,16.5,4.4l87.7-87.7
					C483.5,385,481.1,375.8,473.7,373.9z"/>
			</g>
		</g>
	</g>
</g>
<g id="Riciclo">
</g>
<g id="Riutilizzo">
	<rect x="68.8" y="-112.5" class="st2" width="497.4" height="83.5"/>
	<text transform="matrix(1 0 0 1 140.2522 -38.2598)" class="st0 st3 st4">Riduco</text>
</g>
</svg>
