<?xml version="1.0" encoding="utf-8"?>
<!-- Generator: Adobe Illustrator 21.0.0, SVG Export Plug-In . SVG Version: 6.00 Build 0)  -->
<svg version="1.1" xmlns="http://www.w3.org/2000/svg" xmlns:xlink="http://www.w3.org/1999/xlink" x="0px" y="0px"
	 viewBox="0 0 635 634" style="enable-background:new 0 0 635 634;" xml:space="preserve">
<style type="text/css">
	.st0{fill:#FFFFFF;}
	.st1{fill:#0FB4D7;}
	.st2{fill:none;}
	.st3{font-family:'Montserrat-Medium';}
	.st4{font-size:100px;}
</style>
<g id="Riduco">
</g>
<g id="Riciclo">
</g>
<g id="Riutilizzo">
	<circle class="st0" cx="317.5" cy="316.5" r="317.5"/>
	<g>
		<g>
			<path class="st1" d="M317.5,514.3c-11,0-19.8-8.9-19.8-19.8s8.9-19.8,19.8-19.8c87.2,0,158.1-70.9,158.1-158.1
				s-70.9-158.1-158.1-158.1c-49.6,0-95.4,22.6-125.6,62.1c-6.7,8.7-19.1,10.4-27.8,3.7c-8.7-6.7-10.4-19.1-3.7-27.8
				c18.1-23.6,41.6-43.1,68.1-56.5c27.8-14,57.7-21.1,89-21.1c109,0,197.8,88.7,197.8,197.8S426.5,514.3,317.5,514.3z"/>
		</g>
		<g>
			<g>
				<path class="st1" d="M250.2,229.2l-97,76.6c-6,4.8-15,1.2-16.1-6.4L119.2,177c-1.1-7.6,6.4-13.6,13.6-10.7L247.7,212
					C254.9,214.8,256.3,224.4,250.2,229.2z"/>
			</g>
		</g>
	</g>
	<rect x="68.8" y="-112.5" class="st2" width="497.4" height="83.5"/>
	<text transform="matrix(1 0 0 1 83.5559 -38.2598)" class="st0 st3 st4">Riutilizzo</text>
</g>
</svg>
