<svg xmlns="http://www.w3.org/2000/svg" width="30.688" height="40.474" viewBox="0 0 30.688 40.474"><defs><style>.a{fill:#1ba046;}</style></defs><path class="a" d="M26.8,21.511l.96.3a.732.732,0,0,0,.915-.484L30.656,14.9a.733.733,0,0,0-.485-.916l-9.518-2.936,5.512.2a.731.731,0,0,0,.673-1.07L22.606,2.176a.717.717,0,0,0-.618-.387.727.727,0,0,0-.645.341l-4.772,7.59L16.9.762A.731.731,0,0,0,15.83.089L7.823,4.323a.718.718,0,0,0-.387.618.727.727,0,0,0,.341.645l4.675,2.937L2.931,5.586a.733.733,0,0,0-.919.488L.033,12.494a.733.733,0,0,0,.484.916l.96.3m9.9,1.517L12.921,10.2l6.4,1.972-1.548,5.024Zm1.047,1.856,3.447,1.063M21.9,3.981l3.045,5.758-6.5-.238Zm-6.508-2-.24,6.512L9.637,5.021ZM3.2,7.2l8.328,2.568L9.978,14.8l-8.329-2.57Zm-.319,6.933,8.141,2.512m6.248,1.925L25.4,21.082m2.093-.889-8.323-2.568L20.719,12.6l8.322,2.565Z" transform="translate(0 -0.005)"/><path class="a" d="M25.36,316.49v16.523a1.87,1.87,0,0,0,1.87,1.87h22.76a1.87,1.87,0,0,0,1.87-1.87V316.49Zm9.984,16.927H27.23a.4.4,0,0,1-.4-.4v-15.2h8.519Zm5.072,0H36.81v-15.6h3.607Zm9.977-.4a.4.4,0,0,1-.4.4H41.882v-15.6h8.512Z" transform="translate(-23.591 -294.408)"/></svg>