<svg xmlns="http://www.w3.org/2000/svg" width="20.838" height="24" viewBox="0 0 20.838 24"><defs><style>.a{fill:#707070;}</style></defs><path class="a" d="M52.92,6.444H45.993L49.7,5.451a.509.509,0,0,0,.228-.852L45.476.148a.509.509,0,0,0-.852.228L43.01,6.4,41.4.376a.509.509,0,0,0-.852-.228L36.094,4.6a.509.509,0,0,0,.228.852l3.706.993H33.1a.509.509,0,0,0-.509.509v4.673a.509.509,0,0,0,.509.509h.7V22.7A1.3,1.3,0,0,0,35.1,24H50.922a1.3,1.3,0,0,0,1.3-1.3V12.135h.7a.509.509,0,0,0,.509-.509V6.953A.509.509,0,0,0,52.92,6.444ZM40.685,11.117V7.462h4.654v3.654Zm3.58,1.019V22.98H41.759V12.135ZM45.379,1.492l3.2,3.2L44.207,5.868Zm-4.738,0,1.173,4.376L37.438,4.695ZM33.61,7.462h6.056v3.654H33.61ZM34.818,22.7V12.135H40.74V22.98H35.1A.281.281,0,0,1,34.818,22.7Zm16.385,0a.281.281,0,0,1-.28.28H45.283V12.135H51.2Zm1.208-11.583H46.358V7.462h6.053Z" transform="translate(-32.591 0.002)"/></svg>